<?xml version="1.0" encoding="UTF-8" standalone="no"?>
<!-- Created with Inkscape (http://www.inkscape.org/) -->

<svg
   width="218.188"
   height="50"
   viewBox="0 0 57.728913 13.229166"
   version="1.1"
   id="svg5"
   inkscape:version="1.1.2 (0a00cf5339, 2022-02-04)"
   sodipodi:docname="wave.svg"
   xmlns:inkscape="http://www.inkscape.org/namespaces/inkscape"
   xmlns:sodipodi="http://sodipodi.sourceforge.net/DTD/sodipodi-0.dtd"
   xmlns="http://www.w3.org/2000/svg"
   xmlns:svg="http://www.w3.org/2000/svg">
  <sodipodi:namedview
     id="namedview7"
     pagecolor="#ffffff"
     bordercolor="#000000"
     borderopacity="0.25"
     inkscape:pageshadow="2"
     inkscape:pageopacity="0.0"
     inkscape:pagecheckerboard="0"
     inkscape:document-units="px"
     showgrid="false"
     inkscape:zoom="3.7219656"
     inkscape:cx="157.8467"
     inkscape:cy="15.180151"
     inkscape:window-width="1920"
     inkscape:window-height="1016"
     inkscape:window-x="0"
     inkscape:window-y="0"
     inkscape:window-maximized="1"
     inkscape:current-layer="layer1"
     showguides="true"
     inkscape:guide-bbox="true"
     inkscape:snap-midpoints="true"
     inkscape:snap-intersection-paths="true"
     inkscape:object-paths="true"
     inkscape:snap-smooth-nodes="true"
     units="px">
    <sodipodi:guide
       position="19.242368,7.9374992"
       orientation="-1,0"
       id="guide14465"
       inkscape:label=""
       inkscape:locked="false"
       inkscape:color="rgb(0,0,255)" />
    <sodipodi:guide
       position="1.3558572e-05,7.9374997"
       orientation="0,-1"
       id="guide18976" />
    <sodipodi:guide
       position="0,10.583333"
       orientation="0,1"
       id="guide19054"
       inkscape:label=""
       inkscape:locked="false"
       inkscape:color="rgb(0,0,255)" />
    <sodipodi:guide
       position="76.969377,7.9374987"
       orientation="1,0"
       id="guide19631" />
  </sodipodi:namedview>
  <defs
     id="defs2">
    <clipPath
       clipPathUnits="userSpaceOnUse"
       id="clipPath14817-3">
      <rect
         style="opacity:1;fill:none;fill-opacity:0.145389;stroke:#000000;stroke-width:0.0971259;stroke-miterlimit:4;stroke-dasharray:none;stroke-opacity:1"
         id="rect14819-6"
         width="49.902874"
         height="26.204678"
         x="50.048561"
         y="153.79532" />
    </clipPath>
    <clipPath
       clipPathUnits="userSpaceOnUse"
       id="clipPath19677">
      <rect
         style="opacity:1;fill:none;fill-opacity:0.145389;stroke:#000000;stroke-width:0.0810273;stroke-miterlimit:4;stroke-dasharray:none;stroke-opacity:1"
         id="rect19679"
         width="57.728855"
         height="15.765347"
         x="19.242369"
         y="2.7006602" />
    </clipPath>
  </defs>
  <g
     inkscape:label="Layer 1"
     inkscape:groupmode="layer"
     id="layer1">
    <path
       style="fill:#00005a;fill-opacity:1;stroke-width:0.1"
       d="m 1.3558571e-5,18.556287 v -7.972954 c 0,0 6.294960541429,-2.6458183 9.621030141429,-2.6458328 3.3261763,-1.45e-5 6.2951853,2.6458498 9.6213613,2.6458338 3.326057,-1.6e-5 6.294934,-2.6458198 9.620991,-2.6458338 3.326159,-1.4e-5 6.295149,2.6458458 9.621308,2.6458338 3.326074,-1.2e-5 6.29497,-2.6458221 9.621044,-2.6458338 3.326159,-1.17e-5 6.295149,2.6458338 9.621308,2.6458338 3.326159,0 6.295149,-2.6458455 9.621308,-2.6458338 3.326074,1.17e-5 6.29497,2.6458458 9.621044,2.6458338 3.325989,-1.2e-5 6.29479,-2.6457987 9.620779,-2.6458338 3.326244,-3.51e-5 6.295329,2.6458338 9.621573,2.6458338 3.326243,0 9.62157,-2.6458338 9.62157,-2.6458338 l 1e-5,10.6187868 z"
       id="path15457"
       sodipodi:nodetypes="ccssssssssssccc"
       clip-path="url(#clipPath19677)"
       transform="translate(-19.242336,-5.2916668)" />
  </g>
  <g
     inkscape:groupmode="layer"
     id="layer2"
     inkscape:label="Layer 2">
    <path
       style="opacity:1;fill:#00005a;fill-opacity:1;stroke:none;stroke-width:0;stroke-miterlimit:4;stroke-dasharray:none;stroke-opacity:1"
       d="m -106.1423,174.62505 h 318.11796 v -21.16668 c 0,0 -33.98503,-21.16668 -53.01966,-21.16668 -19.03463,0 -33.98503,21.16668 -53.01966,21.16668 -19.034641,0 -33.985019,-21.16668 -53.01966,-21.16668 -19.034641,0 -33.985019,21.16668 -53.01966,21.16668 -19.034641,0 -33.985019,-21.16668 -53.01966,-21.16668 -19.034641,0 -53.01966,21.16668 -53.01966,21.16668 z"
       id="path12518"
       sodipodi:nodetypes="cccssssscc"
       clip-path="none"
       inkscape:export-filename="/home/zane/projects/personal/website/www_semogenaz_com/src/app/mp3/wave.png"
       inkscape:export-xdpi="96"
       inkscape:export-ydpi="96" />
    <path
       style="fill:#00005a;fill-opacity:1;stroke-width:0.1"
       d="m -0.09308728,37.168679 v -7.972954 l 9.62102758,-2.645833 9.6213617,2.645834 9.620992,-2.645834 9.621308,2.645834 9.621044,-2.645834 9.621308,2.645834 9.621308,-2.645834 9.621044,2.645834 9.620779,-2.645834 9.621573,2.645834 9.621552,-2.645834 10e-6,10.618787 z"
       id="path15457-3"
       sodipodi:nodetypes="ccccccccccccccc" />
  </g>
  <g
     inkscape:groupmode="layer"
     id="layer3"
     inkscape:label="Layer 3" />
</svg>
